# xmcd CD database file
#
# Track frame offsets:
#	150
#	19203
#	38053
#	55541
#	70123
#	89896
#
# Disc length: 1433 seconds
#
# Revision: 0
# Processed by: cddbd v1.5.1PL2 Copyright (c) Steve Scherf et al.
# Submitted via: CDex 1.51
#
DISCID=49059706
DTITLE=SOLT - DIG DOWN DEEPER
DYEAR=2005
DGENRE=Rock
TTITLE0=東京モンキー
TTITLE1=掌の国境
TTITLE2=TSUGUMI
TTITLE3=新しい童話
TTITLE4=紙飛行機
TTITLE5=マイペンライ
EXTD=YEAR: 2005
EXTT0=
EXTT1=
EXTT2=
EXTT3=
EXTT4=
EXTT5=
PLAYORDER=
